<?xml version="1.0" standalone="no"?>
<!DOCTYPE svg PUBLIC "-//W3C//DTD SVG 20010904//EN"
 "http://www.w3.org/TR/2001/REC-SVG-20010904/DTD/svg10.dtd">
<svg version="1.0" xmlns="http://www.w3.org/2000/svg"
 width="517.000000pt" height="514.000000pt" viewBox="0 0 517.000000 514.000000"
 preserveAspectRatio="xMidYMid meet">

<g transform="translate(0.000000,514.000000) scale(0.100000,-0.100000)"
fill="#000000" stroke="none">
<path d="M1780 4672 c0 -4 8 -15 18 -23 9 -9 42 -44 72 -79 94 -109 134 -152
172 -189 21 -20 38 -40 38 -44 0 -4 16 -21 35 -38 40 -35 45 -67 15 -94 -11
-10 -20 -22 -20 -27 0 -4 -15 -30 -34 -56 -18 -27 -36 -57 -40 -69 -6 -20 -44
-43 -70 -43 -8 0 -19 7 -26 15 -7 8 -25 15 -40 15 -15 0 -59 10 -96 22 -62 20
-91 22 -294 22 -207 1 -231 -1 -305 -23 -230 -67 -398 -169 -473 -285 -65
-102 -74 -137 -75 -321 -1 -93 -5 -175 -9 -181 -4 -6 -31 -14 -60 -17 -29 -3
-84 -13 -123 -21 -38 -9 -86 -16 -105 -16 -19 0 -41 -4 -48 -9 -27 -17 22 -22
183 -21 88 1 165 1 172 1 12 -1 63 -97 63 -119 0 -11 14 -44 61 -147 10 -22
20 -47 23 -55 4 -8 15 -28 26 -45 62 -93 63 -131 10 -208 -22 -31 -40 -61 -40
-66 0 -4 -8 -19 -18 -32 -11 -13 -22 -36 -26 -51 -3 -16 -11 -28 -16 -28 -5 0
-12 -17 -16 -37 -4 -21 -13 -47 -20 -58 -6 -11 -15 -40 -19 -65 -4 -25 -14
-58 -23 -75 -13 -24 -15 -68 -15 -230 0 -190 1 -203 24 -255 14 -30 36 -73 51
-95 50 -79 188 -188 263 -208 26 -7 63 -22 115 -47 22 -11 11 -102 -20 -175
-27 -60 -61 -178 -58 -198 4 -19 6 -18 20 13 30 68 110 235 119 250 5 8 16 30
24 48 l15 32 99 0 c151 0 191 -8 203 -39 5 -14 16 -39 24 -54 8 -16 14 -38 14
-50 0 -12 9 -37 20 -55 11 -18 20 -41 20 -51 0 -10 7 -24 15 -31 8 -7 17 -27
21 -46 3 -19 10 -37 15 -40 5 -3 16 -20 24 -37 20 -44 38 -70 132 -195 26 -34
103 -112 149 -149 113 -93 140 -110 264 -166 56 -26 224 -50 263 -38 17 5 52
13 77 17 68 10 198 81 256 138 8 9 20 16 26 16 11 0 152 -143 175 -177 10 -16
12 -16 12 -2 1 9 -6 23 -15 30 -9 7 -20 22 -25 34 -10 22 -19 37 -67 108 -39
56 -41 50 55 168 29 36 53 69 53 73 0 3 16 29 35 57 20 27 40 60 46 72 6 12
21 40 34 62 30 50 65 121 80 160 6 17 20 50 30 74 l19 44 78 -6 c43 -4 87 -11
98 -17 49 -26 469 11 537 48 12 7 29 12 39 12 16 0 70 22 139 57 90 45 131 69
143 80 7 7 16 13 20 13 8 0 110 97 133 127 10 11 20 30 23 41 4 11 13 26 21
32 8 7 15 22 15 34 1 11 9 39 20 61 25 52 28 226 5 282 -31 73 -15 99 75 123
74 20 74 20 64 30 -6 6 -32 5 -70 -2 -69 -12 -112 -5 -121 20 -6 20 -35 86
-52 122 -14 29 -25 47 -66 110 -16 25 -34 52 -40 61 -5 8 -20 31 -33 50 -12
19 -21 43 -18 54 7 31 23 86 40 135 51 156 61 328 25 444 -23 71 -65 156 -79
156 -4 0 -10 8 -13 19 -12 48 -191 160 -352 221 -89 34 -93 40 -72 99 9 27 17
62 17 79 0 17 9 59 20 94 11 34 20 75 20 89 0 14 9 52 20 84 21 61 26 115 11
115 -5 0 -12 -13 -16 -30 -4 -16 -11 -32 -16 -35 -5 -4 -9 -14 -9 -23 0 -10
-9 -34 -20 -55 -11 -20 -20 -43 -20 -50 0 -7 -9 -29 -20 -50 -11 -20 -20 -45
-20 -55 0 -10 -6 -26 -14 -37 -7 -11 -16 -31 -20 -45 -4 -14 -17 -46 -29 -72
-18 -40 -26 -48 -49 -48 -37 0 -54 21 -62 74 -4 25 -11 48 -15 51 -5 2 -12 22
-15 42 -7 40 -36 121 -67 189 -11 23 -19 46 -19 51 0 6 -7 16 -15 23 -8 7 -15
18 -15 26 0 28 -129 202 -213 286 -86 86 -203 173 -276 204 -51 23 -158 44
-216 44 -69 0 -188 -24 -216 -44 -13 -9 -29 -16 -36 -16 -25 0 -143 -90 -220
-167 -28 -29 -57 -53 -65 -52 -14 0 -124 84 -317 242 -118 96 -131 105 -131
89z m174 -727 c5 -14 -18 -65 -74 -162 -6 -10 -15 -29 -21 -43 -6 -14 -20 -43
-30 -66 -11 -23 -19 -46 -19 -51 0 -6 -7 -16 -15 -23 -8 -7 -15 -22 -15 -35 0
-30 -29 -54 -86 -71 -71 -21 -102 -18 -115 10 -9 19 -7 33 10 71 12 26 21 54
21 62 0 14 12 36 59 107 45 69 76 96 114 103 25 4 38 12 43 27 9 30 35 57 69
72 39 17 52 17 59 -1z m1356 -143 c78 -12 211 -79 228 -116 20 -40 6 -49 -54
-36 -26 6 -118 13 -203 16 l-155 6 -49 40 c-66 56 -63 80 11 89 29 4 56 10 60
14 7 7 70 2 162 -13z m-470 -301 c99 -15 221 -65 300 -122 55 -39 60 -46 60
-85 0 -28 -13 -51 -97 -164 -10 -14 -27 -42 -38 -62 -11 -21 -24 -38 -29 -38
-5 0 -29 -21 -53 -47 l-44 -48 -19 23 c-10 12 -29 22 -44 22 -15 0 -30 8 -36
20 -6 11 -21 20 -33 20 -12 0 -31 6 -42 14 -30 20 -236 29 -253 10 -7 -8 -23
-14 -35 -14 -27 0 -187 -156 -187 -182 0 -10 -9 -35 -20 -55 -11 -21 -20 -49
-20 -63 0 -15 -7 -35 -15 -46 -19 -25 -19 -95 0 -120 8 -10 15 -40 15 -65 0
-35 7 -56 30 -87 17 -23 35 -42 40 -42 6 0 10 -12 10 -27 0 -35 36 -73 70 -73
20 0 35 -12 60 -46 29 -38 38 -44 60 -39 14 4 81 8 148 10 113 3 125 5 139 25
10 14 21 19 33 15 13 -4 23 1 32 14 10 17 23 21 61 21 41 0 56 -6 102 -42 49
-39 54 -46 50 -74 -5 -30 13 -61 95 -166 16 -20 20 -39 18 -70 -3 -36 -9 -46
-43 -70 -134 -95 -305 -143 -500 -142 -185 1 -300 29 -440 107 -205 115 -351
295 -431 532 -26 75 -28 92 -28 250 0 195 13 257 87 405 118 237 317 411 557
486 105 32 291 39 440 15z m740 -1885 c0 -35 -46 -123 -92 -178 -25 -30 -159
-138 -170 -138 -16 0 -7 33 34 118 42 89 64 116 111 141 15 8 44 31 64 52 21
21 41 39 46 39 4 0 7 -16 7 -34z m-1492 -306 c34 -32 62 -66 62 -74 0 -36 -76
-57 -222 -63 -104 -4 -132 -2 -159 11 -17 9 -37 16 -43 16 -17 0 -108 50 -133
73 -26 23 -29 42 -10 54 6 4 77 11 157 15 80 3 163 10 185 16 82 20 95 16 163
-48z"/>
<path d="M3941 4204 c0 -11 3 -14 6 -6 3 7 2 16 -1 19 -3 4 -6 -2 -5 -13z"/>
</g>
</svg>
